<?xml version="1.0" encoding="UTF-8" standalone="no"?>
<!DOCTYPE svg PUBLIC "-//W3C//DTD SVG 1.1//EN"
 "http://www.w3.org/Graphics/SVG/1.1/DTD/svg11.dtd">
<!-- Generated by graphviz version 10.0.1 (20240210.2158)
 -->
<!-- Pages: 1 -->
<svg width="1826pt" height="826pt"
 viewBox="0.00 0.00 1825.50 825.50" xmlns="http://www.w3.org/2000/svg" xmlns:xlink="http://www.w3.org/1999/xlink">
<g id="graph0" class="graph" transform="scale(1 1) rotate(0) translate(4 821.5)">
<polygon fill="#ffffff" stroke="none" points="-4,4 -4,-821.5 1821.5,-821.5 1821.5,4 -4,4"/>
<!-- TMC4671 Motor -->
<g id="node1" class="node">
<title>TMC4671 Motor</title>
<polygon fill="#ffffff" stroke="black" points="957.25,-751.5 741,-751.5 741,-498.5 957.25,-498.5 957.25,-751.5"/>
<polygon fill="none" stroke="black" points="741,-727 741,-751.5 957.25,-751.5 957.25,-727 741,-727"/>
<text text-anchor="start" x="797.38" y="-734.2" font-family="arial" font-size="14.00">TMC4671 Motor</text>
<polygon fill="none" stroke="black" points="741,-702.5 741,-727 917.75,-727 917.75,-702.5 741,-702.5"/>
<text text-anchor="start" x="745" y="-709.7" font-family="arial" font-size="14.00">Plugin terminal 4p 7.62mm</text>
<polygon fill="none" stroke="black" points="917.75,-702.5 917.75,-727 957.25,-727 957.25,-702.5 917.75,-702.5"/>
<text text-anchor="start" x="921.75" y="-709.7" font-family="arial" font-size="14.00">4&#45;pin</text>
<polygon fill="none" stroke="black" points="741,-678.5 741,-702.5 850.12,-702.5 850.12,-678.5 741,-678.5"/>
<text text-anchor="start" x="790.69" y="-685.2" font-family="arial" font-size="14.00">A</text>
<polygon fill="none" stroke="black" points="850.12,-678.5 850.12,-702.5 957.25,-702.5 957.25,-678.5 850.12,-678.5"/>
<text text-anchor="start" x="899.56" y="-685.2" font-family="arial" font-size="14.00">1</text>
<polygon fill="none" stroke="black" points="741,-654.5 741,-678.5 850.12,-678.5 850.12,-654.5 741,-654.5"/>
<text text-anchor="start" x="790.69" y="-661.2" font-family="arial" font-size="14.00">B</text>
<polygon fill="none" stroke="black" points="850.12,-654.5 850.12,-678.5 957.25,-678.5 957.25,-654.5 850.12,-654.5"/>
<text text-anchor="start" x="899.56" y="-661.2" font-family="arial" font-size="14.00">2</text>
<polygon fill="none" stroke="black" points="741,-630.5 741,-654.5 850.12,-654.5 850.12,-630.5 741,-630.5"/>
<text text-anchor="start" x="790.31" y="-637.2" font-family="arial" font-size="14.00">C</text>
<polygon fill="none" stroke="black" points="850.12,-630.5 850.12,-654.5 957.25,-654.5 957.25,-630.5 850.12,-630.5"/>
<text text-anchor="start" x="899.56" y="-637.2" font-family="arial" font-size="14.00">3</text>
<polygon fill="none" stroke="black" points="741,-606.5 741,-630.5 850.12,-630.5 850.12,-606.5 741,-606.5"/>
<text text-anchor="start" x="790.31" y="-613.2" font-family="arial" font-size="14.00">D</text>
<polygon fill="none" stroke="black" points="850.12,-606.5 850.12,-630.5 957.25,-630.5 957.25,-606.5 850.12,-606.5"/>
<text text-anchor="start" x="899.56" y="-613.2" font-family="arial" font-size="14.00">4</text>
<polygon fill="none" stroke="black" points="741,-498.5 741,-606.5 957.25,-606.5 957.25,-498.5 741,-498.5"/>
<image xlink:href="terminalblock4p.png" width="143.65px" height="96px" preserveAspectRatio="xMinYMin meet" x="777.3" y="-600.5"/>
</g>
<!-- Motor cable -->
<g id="node7" class="node">
<title>Motor cable</title>
<polygon fill="#ffffff" stroke="black" points="1455.25,-817.5 1103.25,-817.5 1103.25,-566.5 1455.25,-566.5 1455.25,-817.5"/>
<polygon fill="none" stroke="black" points="1103.25,-793 1103.25,-817.5 1455.25,-817.5 1455.25,-793 1103.25,-793"/>
<text text-anchor="start" x="1242.12" y="-800.2" font-family="arial" font-size="14.00">Motor cable</text>
<polygon fill="none" stroke="black" points="1103.25,-768.5 1103.25,-793 1215.33,-793 1215.33,-768.5 1103.25,-768.5"/>
<text text-anchor="start" x="1151.79" y="-775.7" font-family="arial" font-size="14.00">4x</text>
<polygon fill="none" stroke="black" points="1215.33,-768.5 1215.33,-793 1334.17,-793 1334.17,-768.5 1215.33,-768.5"/>
<text text-anchor="start" x="1263.88" y="-775.7" font-family="arial" font-size="14.00">+ S</text>
<polygon fill="none" stroke="black" points="1334.17,-768.5 1334.17,-793 1455.25,-793 1455.25,-768.5 1334.17,-768.5"/>
<text text-anchor="start" x="1382.71" y="-775.7" font-family="arial" font-size="14.00">2 m</text>
<text text-anchor="start" x="1167.88" y="-753.2" font-family="arial" font-size="14.00"> </text>
<text text-anchor="start" x="1115.38" y="-733.2" font-family="arial" font-size="14.00">Power supply:PE</text>
<text text-anchor="start" x="1238" y="-733.2" font-family="arial" font-size="14.00"> &#160;&#160;&#160;&#160;1:YEGN &#160;&#160;&#160;</text>
<text text-anchor="start" x="1327.25" y="-733.2" font-family="arial" font-size="14.00">Motor 3 phase:1:PE</text>
<polygon fill="#000000" stroke="none" points="1103.25,-726.5 1103.25,-728.5 1455.25,-728.5 1455.25,-726.5 1103.25,-726.5"/>
<polygon fill="#ffff00" stroke="none" points="1103.25,-724.5 1103.25,-726.5 1455.25,-726.5 1455.25,-724.5 1103.25,-724.5"/>
<polygon fill="#00ff00" stroke="none" points="1103.25,-722.5 1103.25,-724.5 1455.25,-724.5 1455.25,-722.5 1103.25,-722.5"/>
<polygon fill="#ffff00" stroke="none" points="1103.25,-720.5 1103.25,-722.5 1455.25,-722.5 1455.25,-720.5 1103.25,-720.5"/>
<polygon fill="#000000" stroke="none" points="1103.25,-718.5 1103.25,-720.5 1455.25,-720.5 1455.25,-718.5 1103.25,-718.5"/>
<text text-anchor="start" x="1105.25" y="-703.2" font-family="arial" font-size="14.00">TMC4671 Motor:1:A</text>
<text text-anchor="start" x="1248.12" y="-703.2" font-family="arial" font-size="14.00"> &#160;&#160;&#160;&#160;2:BN &#160;&#160;&#160;</text>
<text text-anchor="start" x="1332.12" y="-703.2" font-family="arial" font-size="14.00">Motor 3 phase:2:U</text>
<polygon fill="#000000" stroke="none" points="1103.25,-696.5 1103.25,-698.5 1455.25,-698.5 1455.25,-696.5 1103.25,-696.5"/>
<polygon fill="#895956" stroke="none" points="1103.25,-694.5 1103.25,-696.5 1455.25,-696.5 1455.25,-694.5 1103.25,-694.5"/>
<polygon fill="#895956" stroke="none" points="1103.25,-692.5 1103.25,-694.5 1455.25,-694.5 1455.25,-692.5 1103.25,-692.5"/>
<polygon fill="#895956" stroke="none" points="1103.25,-690.5 1103.25,-692.5 1455.25,-692.5 1455.25,-690.5 1103.25,-690.5"/>
<polygon fill="#000000" stroke="none" points="1103.25,-688.5 1103.25,-690.5 1455.25,-690.5 1455.25,-688.5 1103.25,-688.5"/>
<text text-anchor="start" x="1105.25" y="-673.2" font-family="arial" font-size="14.00">TMC4671 Motor:2:B</text>
<text text-anchor="start" x="1248.12" y="-673.2" font-family="arial" font-size="14.00"> &#160;&#160;&#160;&#160;3:BU &#160;&#160;&#160;</text>
<text text-anchor="start" x="1332.12" y="-673.2" font-family="arial" font-size="14.00">Motor 3 phase:3:V</text>
<polygon fill="#000000" stroke="none" points="1103.25,-666.5 1103.25,-668.5 1455.25,-668.5 1455.25,-666.5 1103.25,-666.5"/>
<polygon fill="#0066ff" stroke="none" points="1103.25,-664.5 1103.25,-666.5 1455.25,-666.5 1455.25,-664.5 1103.25,-664.5"/>
<polygon fill="#0066ff" stroke="none" points="1103.25,-662.5 1103.25,-664.5 1455.25,-664.5 1455.25,-662.5 1103.25,-662.5"/>
<polygon fill="#0066ff" stroke="none" points="1103.25,-660.5 1103.25,-662.5 1455.25,-662.5 1455.25,-660.5 1103.25,-660.5"/>
<polygon fill="#000000" stroke="none" points="1103.25,-658.5 1103.25,-660.5 1455.25,-660.5 1455.25,-658.5 1103.25,-658.5"/>
<text text-anchor="start" x="1104.88" y="-643.2" font-family="arial" font-size="14.00">TMC4671 Motor:3:C</text>
<text text-anchor="start" x="1248.12" y="-643.2" font-family="arial" font-size="14.00"> &#160;&#160;&#160;&#160;4:BK &#160;&#160;&#160;</text>
<text text-anchor="start" x="1329.88" y="-643.2" font-family="arial" font-size="14.00">Motor 3 phase:4:W</text>
<polygon fill="#000000" stroke="none" points="1103.25,-636.5 1103.25,-638.5 1455.25,-638.5 1455.25,-636.5 1103.25,-636.5"/>
<polygon fill="#000000" stroke="none" points="1103.25,-634.5 1103.25,-636.5 1455.25,-636.5 1455.25,-634.5 1103.25,-634.5"/>
<polygon fill="#000000" stroke="none" points="1103.25,-632.5 1103.25,-634.5 1455.25,-634.5 1455.25,-632.5 1103.25,-632.5"/>
<polygon fill="#000000" stroke="none" points="1103.25,-630.5 1103.25,-632.5 1455.25,-632.5 1455.25,-630.5 1103.25,-630.5"/>
<polygon fill="#000000" stroke="none" points="1103.25,-628.5 1103.25,-630.5 1455.25,-630.5 1455.25,-628.5 1103.25,-628.5"/>
<text text-anchor="start" x="1167.88" y="-613.2" font-family="arial" font-size="14.00"> </text>
<text text-anchor="start" x="1260.88" y="-593.2" font-family="arial" font-size="14.00">Shield</text>
<text text-anchor="start" x="1327.25" y="-593.2" font-family="arial" font-size="14.00">Motor 3 phase:1:PE</text>
<polygon fill="#000000" stroke="none" points="1103.25,-586.5 1103.25,-588.5 1455.25,-588.5 1455.25,-586.5 1103.25,-586.5"/>
<text text-anchor="start" x="1167.88" y="-571.2" font-family="arial" font-size="14.00"> </text>
</g>
<!-- TMC4671 Motor&#45;&#45;Motor cable -->
<g id="edge1" class="edge">
<title>TMC4671 Motor:e&#45;&#45;Motor cable:w</title>
<path fill="none" stroke="#000000" stroke-width="2" d="M957.25,-687C1022.44,-687.07 1038.53,-690.07 1102.25,-690"/>
<path fill="none" stroke="#895956" stroke-width="2" d="M957.25,-689C1022.07,-689.03 1038.16,-692.03 1102.25,-692"/>
<path fill="none" stroke="#895956" stroke-width="2" d="M957.25,-691C1021.71,-691 1037.79,-694 1102.25,-694"/>
<path fill="none" stroke="#895956" stroke-width="2" d="M957.25,-693C1021.34,-692.97 1037.43,-695.97 1102.25,-696"/>
<path fill="none" stroke="#000000" stroke-width="2" d="M957.25,-695C1020.97,-694.93 1037.06,-697.93 1102.25,-698"/>
</g>
<!-- TMC4671 Motor&#45;&#45;Motor cable -->
<g id="edge3" class="edge">
<title>TMC4671 Motor:e&#45;&#45;Motor cable:w</title>
<path fill="none" stroke="#000000" stroke-width="2" d="M957.25,-663C1020.75,-663.12 1036.81,-659.12 1102.25,-659"/>
<path fill="none" stroke="#0066ff" stroke-width="2" d="M957.25,-665C1021.24,-665.06 1037.3,-661.06 1102.25,-661"/>
<path fill="none" stroke="#0066ff" stroke-width="2" d="M957.25,-667C1021.72,-667 1037.78,-663 1102.25,-663"/>
<path fill="none" stroke="#0066ff" stroke-width="2" d="M957.25,-669C1022.2,-668.94 1038.26,-664.94 1102.25,-665"/>
<path fill="none" stroke="#000000" stroke-width="2" d="M957.25,-671C1022.69,-670.88 1038.75,-666.88 1102.25,-667"/>
</g>
<!-- TMC4671 Motor&#45;&#45;Motor cable -->
<g id="edge5" class="edge">
<title>TMC4671 Motor:e&#45;&#45;Motor cable:w</title>
<path fill="none" stroke="#000000" stroke-width="2" d="M957.25,-639C1019.71,-639.62 1035.51,-629.62 1102.25,-629"/>
<path fill="none" stroke="#000000" stroke-width="2" d="M957.25,-641C1020.78,-641.31 1036.58,-631.31 1102.25,-631"/>
<path fill="none" stroke="#000000" stroke-width="2" d="M957.25,-643C1021.85,-643 1037.65,-633 1102.25,-633"/>
<path fill="none" stroke="#000000" stroke-width="2" d="M957.25,-645C1022.92,-644.69 1038.72,-634.69 1102.25,-635"/>
<path fill="none" stroke="#000000" stroke-width="2" d="M957.25,-647C1023.99,-646.38 1039.79,-636.38 1102.25,-637"/>
</g>
<!-- TMC4671 Power -->
<g id="node2" class="node">
<title>TMC4671 Power</title>
<polygon fill="#ffffff" stroke="black" points="1817.5,-351.5 1601.25,-351.5 1601.25,-98.5 1817.5,-98.5 1817.5,-351.5"/>
<polygon fill="none" stroke="black" points="1601.25,-327 1601.25,-351.5 1817.5,-351.5 1817.5,-327 1601.25,-327"/>
<text text-anchor="start" x="1655.38" y="-334.2" font-family="arial" font-size="14.00">TMC4671 Power</text>
<polygon fill="none" stroke="black" points="1601.25,-302.5 1601.25,-327 1778,-327 1778,-302.5 1601.25,-302.5"/>
<text text-anchor="start" x="1605.25" y="-309.7" font-family="arial" font-size="14.00">Plugin terminal 4p 7.62mm</text>
<polygon fill="none" stroke="black" points="1778,-302.5 1778,-327 1817.5,-327 1817.5,-302.5 1778,-302.5"/>
<text text-anchor="start" x="1782" y="-309.7" font-family="arial" font-size="14.00">4&#45;pin</text>
<polygon fill="none" stroke="black" points="1601.25,-278.5 1601.25,-302.5 1697.88,-302.5 1697.88,-278.5 1601.25,-278.5"/>
<text text-anchor="start" x="1645.44" y="-285.2" font-family="arial" font-size="14.00">1</text>
<polygon fill="none" stroke="black" points="1697.88,-278.5 1697.88,-302.5 1817.5,-302.5 1817.5,-278.5 1697.88,-278.5"/>
<text text-anchor="start" x="1741.94" y="-285.2" font-family="arial" font-size="14.00">GND</text>
<polygon fill="none" stroke="black" points="1601.25,-254.5 1601.25,-278.5 1697.88,-278.5 1697.88,-254.5 1601.25,-254.5"/>
<text text-anchor="start" x="1645.44" y="-261.2" font-family="arial" font-size="14.00">2</text>
<polygon fill="none" stroke="black" points="1697.88,-254.5 1697.88,-278.5 1817.5,-278.5 1817.5,-254.5 1697.88,-254.5"/>
<text text-anchor="start" x="1743.81" y="-261.2" font-family="arial" font-size="14.00">PB+</text>
<polygon fill="none" stroke="black" points="1601.25,-230.5 1601.25,-254.5 1697.88,-254.5 1697.88,-230.5 1601.25,-230.5"/>
<text text-anchor="start" x="1645.44" y="-237.2" font-family="arial" font-size="14.00">3</text>
<polygon fill="none" stroke="black" points="1697.88,-230.5 1697.88,-254.5 1817.5,-254.5 1817.5,-230.5 1697.88,-230.5"/>
<text text-anchor="start" x="1747.19" y="-237.2" font-family="arial" font-size="14.00">VM</text>
<polygon fill="none" stroke="black" points="1601.25,-206.5 1601.25,-230.5 1697.88,-230.5 1697.88,-206.5 1601.25,-206.5"/>
<text text-anchor="start" x="1645.44" y="-213.2" font-family="arial" font-size="14.00">4</text>
<polygon fill="none" stroke="black" points="1697.88,-206.5 1697.88,-230.5 1817.5,-230.5 1817.5,-206.5 1697.88,-206.5"/>
<text text-anchor="start" x="1745.69" y="-213.2" font-family="arial" font-size="14.00">PB&#45;</text>
<polygon fill="none" stroke="black" points="1601.25,-98.5 1601.25,-206.5 1817.5,-206.5 1817.5,-98.5 1601.25,-98.5"/>
<image xlink:href="terminalblock4p.png" width="143.65px" height="96px" preserveAspectRatio="xMinYMin meet" x="1637.55" y="-200.5"/>
</g>
<!-- Power supply -->
<g id="node3" class="node">
<title>Power supply</title>
<polygon fill="#ffffff" stroke="black" points="903.12,-474 795.12,-474 795.12,-230 903.12,-230 903.12,-474"/>
<polygon fill="none" stroke="black" points="795.12,-449.5 795.12,-474 903.12,-474 903.12,-449.5 795.12,-449.5"/>
<text text-anchor="start" x="806.38" y="-456.7" font-family="arial" font-size="14.00">Power supply</text>
<polygon fill="none" stroke="black" points="795.12,-425 795.12,-449.5 863,-449.5 863,-425 795.12,-425"/>
<text text-anchor="start" x="799.44" y="-432.2" font-family="arial" font-size="14.00">48V PSU</text>
<polygon fill="none" stroke="black" points="863,-425 863,-449.5 903.12,-449.5 903.12,-425 863,-425"/>
<text text-anchor="start" x="867.31" y="-432.2" font-family="arial" font-size="14.00">5&#45;pin</text>
<polygon fill="none" stroke="black" points="795.12,-401 795.12,-425 849.12,-425 849.12,-401 795.12,-401"/>
<text text-anchor="start" x="806.38" y="-407.7" font-family="arial" font-size="14.00">GND</text>
<polygon fill="none" stroke="black" points="849.12,-401 849.12,-425 903.12,-425 903.12,-401 849.12,-401"/>
<text text-anchor="start" x="860.38" y="-407.7" font-family="arial" font-size="14.00">GND</text>
<polygon fill="none" stroke="black" points="795.12,-377 795.12,-401 849.12,-401 849.12,-377 795.12,-377"/>
<text text-anchor="start" x="804.88" y="-383.7" font-family="arial" font-size="14.00">48V+</text>
<polygon fill="none" stroke="black" points="849.12,-377 849.12,-401 903.12,-401 903.12,-377 849.12,-377"/>
<text text-anchor="start" x="858.88" y="-383.7" font-family="arial" font-size="14.00">48V+</text>
<polygon fill="none" stroke="black" points="795.12,-353 795.12,-377 849.12,-377 849.12,-353 795.12,-353"/>
<text text-anchor="start" x="818" y="-359.7" font-family="arial" font-size="14.00">L</text>
<polygon fill="none" stroke="black" points="849.12,-353 849.12,-377 903.12,-377 903.12,-353 849.12,-353"/>
<text text-anchor="start" x="872" y="-359.7" font-family="arial" font-size="14.00">L</text>
<polygon fill="none" stroke="black" points="795.12,-329 795.12,-353 849.12,-353 849.12,-329 795.12,-329"/>
<text text-anchor="start" x="817.25" y="-335.7" font-family="arial" font-size="14.00">N</text>
<polygon fill="none" stroke="black" points="849.12,-329 849.12,-353 903.12,-353 903.12,-329 849.12,-329"/>
<text text-anchor="start" x="871.25" y="-335.7" font-family="arial" font-size="14.00">N</text>
<polygon fill="none" stroke="black" points="795.12,-305 795.12,-329 849.12,-329 849.12,-305 795.12,-305"/>
<text text-anchor="start" x="812.38" y="-311.7" font-family="arial" font-size="14.00">PE</text>
<polygon fill="none" stroke="black" points="849.12,-305 849.12,-329 903.12,-329 903.12,-305 849.12,-305"/>
<text text-anchor="start" x="866.38" y="-311.7" font-family="arial" font-size="14.00">PE</text>
<polygon fill="none" stroke="black" points="795.12,-230 795.12,-305 903.12,-305 903.12,-230 795.12,-230"/>
<image xlink:href="lrspsu.png" width="93.0417px" height="63px" preserveAspectRatio="xMinYMin meet" x="802.604" y="-299"/>
</g>
<!-- Power supply&#45;&#45;Motor cable -->
<g id="edge8" class="edge">
<title>Power supply:e&#45;&#45;Motor cable:w</title>
<path fill="none" stroke="#000000" stroke-width="2" d="M904.12,-313C1108.88,-318.79 904.64,-725.79 1102.25,-720"/>
<path fill="none" stroke="#ffff00" stroke-width="2" d="M904.12,-315C1107.1,-317.9 902.85,-724.9 1102.25,-722"/>
<path fill="none" stroke="#00ff00" stroke-width="2" d="M904.12,-317C1105.31,-317 901.07,-724 1102.25,-724"/>
<path fill="none" stroke="#ffff00" stroke-width="2" d="M904.12,-319C1103.52,-316.1 899.28,-723.1 1102.25,-726"/>
<path fill="none" stroke="#000000" stroke-width="2" d="M904.12,-321C1101.73,-315.21 897.49,-722.21 1102.25,-728"/>
</g>
<!-- Power cable -->
<g id="node9" class="node">
<title>Power cable</title>
<polygon fill="#ffffff" stroke="black" points="1457.25,-459.5 1101.25,-459.5 1101.25,-310.5 1457.25,-310.5 1457.25,-459.5"/>
<polygon fill="none" stroke="black" points="1101.25,-435 1101.25,-459.5 1457.25,-459.5 1457.25,-435 1101.25,-435"/>
<text text-anchor="start" x="1239.88" y="-442.2" font-family="arial" font-size="14.00">Power cable</text>
<polygon fill="none" stroke="black" points="1101.25,-410.5 1101.25,-435 1457.25,-435 1457.25,-410.5 1101.25,-410.5"/>
<text text-anchor="start" x="1271.75" y="-417.7" font-family="arial" font-size="14.00">2x</text>
<text text-anchor="start" x="1162.88" y="-395.2" font-family="arial" font-size="14.00"> </text>
<text text-anchor="start" x="1104.38" y="-375.2" font-family="arial" font-size="14.00">Power supply:GND</text>
<text text-anchor="start" x="1230.62" y="-375.2" font-family="arial" font-size="14.00"> &#160;&#160;&#160;&#160;1:BK &#160;&#160;&#160;</text>
<text text-anchor="start" x="1300.12" y="-375.2" font-family="arial" font-size="14.00">TMC4671 Power:1:GND</text>
<polygon fill="#000000" stroke="none" points="1101.25,-368.5 1101.25,-370.5 1457.25,-370.5 1457.25,-368.5 1101.25,-368.5"/>
<polygon fill="#000000" stroke="none" points="1101.25,-366.5 1101.25,-368.5 1457.25,-368.5 1457.25,-366.5 1101.25,-366.5"/>
<polygon fill="#000000" stroke="none" points="1101.25,-364.5 1101.25,-366.5 1457.25,-366.5 1457.25,-364.5 1101.25,-364.5"/>
<polygon fill="#000000" stroke="none" points="1101.25,-362.5 1101.25,-364.5 1457.25,-364.5 1457.25,-362.5 1101.25,-362.5"/>
<polygon fill="#000000" stroke="none" points="1101.25,-360.5 1101.25,-362.5 1457.25,-362.5 1457.25,-360.5 1101.25,-360.5"/>
<text text-anchor="start" x="1102.88" y="-345.2" font-family="arial" font-size="14.00">Power supply:48V+</text>
<text text-anchor="start" x="1229.88" y="-345.2" font-family="arial" font-size="14.00"> &#160;&#160;&#160;&#160;2:RD &#160;&#160;&#160;</text>
<text text-anchor="start" x="1305.38" y="-345.2" font-family="arial" font-size="14.00">TMC4671 Power:3:VM</text>
<polygon fill="#000000" stroke="none" points="1101.25,-338.5 1101.25,-340.5 1457.25,-340.5 1457.25,-338.5 1101.25,-338.5"/>
<polygon fill="#ff0000" stroke="none" points="1101.25,-336.5 1101.25,-338.5 1457.25,-338.5 1457.25,-336.5 1101.25,-336.5"/>
<polygon fill="#ff0000" stroke="none" points="1101.25,-334.5 1101.25,-336.5 1457.25,-336.5 1457.25,-334.5 1101.25,-334.5"/>
<polygon fill="#ff0000" stroke="none" points="1101.25,-332.5 1101.25,-334.5 1457.25,-334.5 1457.25,-332.5 1101.25,-332.5"/>
<polygon fill="#000000" stroke="none" points="1101.25,-330.5 1101.25,-332.5 1457.25,-332.5 1457.25,-330.5 1101.25,-330.5"/>
<text text-anchor="start" x="1162.88" y="-315.2" font-family="arial" font-size="14.00"> </text>
</g>
<!-- Power supply&#45;&#45;Power cable -->
<g id="edge14" class="edge">
<title>Power supply:e&#45;&#45;Power cable:w</title>
<path fill="none" stroke="#000000" stroke-width="2" d="M904.12,-409C990.52,-411.68 1007.3,-363.68 1101.25,-361"/>
<path fill="none" stroke="#000000" stroke-width="2" d="M904.12,-411C992.41,-412.34 1009.19,-364.34 1101.25,-363"/>
<path fill="none" stroke="#000000" stroke-width="2" d="M904.12,-413C994.3,-413 1011.08,-365 1101.25,-365"/>
<path fill="none" stroke="#000000" stroke-width="2" d="M904.12,-415C996.18,-413.66 1012.97,-365.66 1101.25,-367"/>
<path fill="none" stroke="#000000" stroke-width="2" d="M904.12,-417C998.07,-414.32 1014.85,-366.32 1101.25,-369"/>
</g>
<!-- Power supply&#45;&#45;Power cable -->
<g id="edge16" class="edge">
<title>Power supply:e&#45;&#45;Power cable:w</title>
<path fill="none" stroke="#000000" stroke-width="2" d="M904.12,-385C991.12,-387.9 1006.57,-333.9 1101.25,-331"/>
<path fill="none" stroke="#ff0000" stroke-width="2" d="M904.12,-387C993.04,-388.45 1008.49,-334.45 1101.25,-333"/>
<path fill="none" stroke="#ff0000" stroke-width="2" d="M904.12,-389C994.96,-389 1010.41,-335 1101.25,-335"/>
<path fill="none" stroke="#ff0000" stroke-width="2" d="M904.12,-391C996.89,-389.55 1012.33,-335.55 1101.25,-337"/>
<path fill="none" stroke="#000000" stroke-width="2" d="M904.12,-393C998.81,-390.1 1014.26,-336.1 1101.25,-339"/>
</g>
<!-- Mains plug -->
<g id="node4" class="node">
<title>Mains plug</title>
<polygon fill="#ffffff" stroke="black" points="158,-426.25 0,-426.25 0,-205.75 158,-205.75 158,-426.25"/>
<polygon fill="none" stroke="black" points="0,-401.75 0,-426.25 158,-426.25 158,-401.75 0,-401.75"/>
<text text-anchor="start" x="45.25" y="-408.95" font-family="arial" font-size="14.00">Mains plug</text>
<polygon fill="none" stroke="black" points="0,-377.25 0,-401.75 158,-401.75 158,-377.25 0,-377.25"/>
<text text-anchor="start" x="63.25" y="-384.45" font-family="arial" font-size="14.00">3&#45;pin</text>
<polygon fill="none" stroke="black" points="0,-352.75 0,-377.25 158,-377.25 158,-352.75 0,-352.75"/>
<text text-anchor="start" x="74.88" y="-359.95" font-family="arial" font-size="14.00">L</text>
<polygon fill="none" stroke="black" points="0,-328.25 0,-352.75 158,-352.75 158,-328.25 0,-328.25"/>
<text text-anchor="start" x="74.12" y="-335.45" font-family="arial" font-size="14.00">N</text>
<polygon fill="none" stroke="black" points="0,-303.75 0,-328.25 158,-328.25 158,-303.75 0,-303.75"/>
<text text-anchor="start" x="69.25" y="-310.95" font-family="arial" font-size="14.00">PE</text>
<polygon fill="none" stroke="black" points="0,-205.75 0,-303.75 158,-303.75 158,-205.75 0,-205.75"/>
<image xlink:href="Schuko-Stecker.png" width="143.333px" height="86px" preserveAspectRatio="xMinYMin meet" x="7.33333" y="-297.75"/>
</g>
<!-- Mains cable -->
<g id="node10" class="node">
<title>Mains cable</title>
<polygon fill="#ffffff" stroke="black" points="597,-465.5 302,-465.5 302,-286.5 597,-286.5 597,-465.5"/>
<polygon fill="none" stroke="black" points="302,-441 302,-465.5 597,-465.5 597,-441 302,-441"/>
<text text-anchor="start" x="412" y="-448.2" font-family="arial" font-size="14.00">Mains cable</text>
<polygon fill="none" stroke="black" points="302,-416.5 302,-441 597,-441 597,-416.5 302,-416.5"/>
<text text-anchor="start" x="442" y="-423.7" font-family="arial" font-size="14.00">3x</text>
<text text-anchor="start" x="347.12" y="-401.2" font-family="arial" font-size="14.00"> </text>
<text text-anchor="start" x="309.25" y="-381.2" font-family="arial" font-size="14.00">Mains plug:L</text>
<text text-anchor="start" x="407.88" y="-381.2" font-family="arial" font-size="14.00"> &#160;&#160;&#160;&#160;1:BN &#160;&#160;&#160;</text>
<text text-anchor="start" x="492.25" y="-381.2" font-family="arial" font-size="14.00">Power supply:L</text>
<polygon fill="#000000" stroke="none" points="302,-374.5 302,-376.5 597,-376.5 597,-374.5 302,-374.5"/>
<polygon fill="#895956" stroke="none" points="302,-372.5 302,-374.5 597,-374.5 597,-372.5 302,-372.5"/>
<polygon fill="#895956" stroke="none" points="302,-370.5 302,-372.5 597,-372.5 597,-370.5 302,-370.5"/>
<polygon fill="#895956" stroke="none" points="302,-368.5 302,-370.5 597,-370.5 597,-368.5 302,-368.5"/>
<polygon fill="#000000" stroke="none" points="302,-366.5 302,-368.5 597,-368.5 597,-366.5 302,-366.5"/>
<text text-anchor="start" x="308.5" y="-351.2" font-family="arial" font-size="14.00">Mains plug:N</text>
<text text-anchor="start" x="407.88" y="-351.2" font-family="arial" font-size="14.00"> &#160;&#160;&#160;&#160;2:BU &#160;&#160;&#160;</text>
<text text-anchor="start" x="491.5" y="-351.2" font-family="arial" font-size="14.00">Power supply:N</text>
<polygon fill="#000000" stroke="none" points="302,-344.5 302,-346.5 597,-346.5 597,-344.5 302,-344.5"/>
<polygon fill="#0066ff" stroke="none" points="302,-342.5 302,-344.5 597,-344.5 597,-342.5 302,-342.5"/>
<polygon fill="#0066ff" stroke="none" points="302,-340.5 302,-342.5 597,-342.5 597,-340.5 302,-340.5"/>
<polygon fill="#0066ff" stroke="none" points="302,-338.5 302,-340.5 597,-340.5 597,-338.5 302,-338.5"/>
<polygon fill="#000000" stroke="none" points="302,-336.5 302,-338.5 597,-338.5 597,-336.5 302,-336.5"/>
<text text-anchor="start" x="303.62" y="-321.2" font-family="arial" font-size="14.00">Mains plug:PE</text>
<text text-anchor="start" x="397.75" y="-321.2" font-family="arial" font-size="14.00"> &#160;&#160;&#160;&#160;3:YEGN &#160;&#160;&#160;</text>
<text text-anchor="start" x="486.62" y="-321.2" font-family="arial" font-size="14.00">Power supply:PE</text>
<polygon fill="#000000" stroke="none" points="302,-314.5 302,-316.5 597,-316.5 597,-314.5 302,-314.5"/>
<polygon fill="#ffff00" stroke="none" points="302,-312.5 302,-314.5 597,-314.5 597,-312.5 302,-312.5"/>
<polygon fill="#00ff00" stroke="none" points="302,-310.5 302,-312.5 597,-312.5 597,-310.5 302,-310.5"/>
<polygon fill="#ffff00" stroke="none" points="302,-308.5 302,-310.5 597,-310.5 597,-308.5 302,-308.5"/>
<polygon fill="#000000" stroke="none" points="302,-306.5 302,-308.5 597,-308.5 597,-306.5 302,-306.5"/>
<text text-anchor="start" x="347.12" y="-291.2" font-family="arial" font-size="14.00"> </text>
</g>
<!-- Mains plug&#45;&#45;Mains cable -->
<g id="edge18" class="edge">
<title>Mains plug:e&#45;&#45;Mains cable:w</title>
<path fill="none" stroke="#000000" stroke-width="2" d="M158,-361C223.47,-361.26 239.36,-367.26 302,-367"/>
<path fill="none" stroke="#895956" stroke-width="2" d="M158,-363C222.76,-363.13 238.65,-369.13 302,-369"/>
<path fill="none" stroke="#895956" stroke-width="2" d="M158,-365C222.06,-365 237.94,-371 302,-371"/>
<path fill="none" stroke="#895956" stroke-width="2" d="M158,-367C221.35,-366.87 237.24,-372.87 302,-373"/>
<path fill="none" stroke="#000000" stroke-width="2" d="M158,-369C220.64,-368.74 236.53,-374.74 302,-375"/>
</g>
<!-- Mains plug&#45;&#45;Mains cable -->
<g id="edge20" class="edge">
<title>Mains plug:e&#45;&#45;Mains cable:w</title>
<path fill="none" stroke="#000000" stroke-width="2" d="M158,-337C222,-337 238,-337 302,-337"/>
<path fill="none" stroke="#0066ff" stroke-width="2" d="M158,-339C222,-339 238,-339 302,-339"/>
<path fill="none" stroke="#0066ff" stroke-width="2" d="M158,-341C222,-341 238,-341 302,-341"/>
<path fill="none" stroke="#0066ff" stroke-width="2" d="M158,-343C222,-343 238,-343 302,-343"/>
<path fill="none" stroke="#000000" stroke-width="2" d="M158,-345C222,-345 238,-345 302,-345"/>
</g>
<!-- Mains plug&#45;&#45;Mains cable -->
<g id="edge22" class="edge">
<title>Mains plug:e&#45;&#45;Mains cable:w</title>
<path fill="none" stroke="#000000" stroke-width="2" d="M158,-312C220.84,-312.18 236.76,-307.18 302,-307"/>
<path fill="none" stroke="#ffff00" stroke-width="2" d="M158,-314C221.44,-314.09 237.36,-309.09 302,-309"/>
<path fill="none" stroke="#00ff00" stroke-width="2" d="M158,-316C222.04,-316 237.96,-311 302,-311"/>
<path fill="none" stroke="#ffff00" stroke-width="2" d="M158,-318C222.64,-317.91 238.56,-312.91 302,-313"/>
<path fill="none" stroke="#000000" stroke-width="2" d="M158,-320C223.24,-319.82 239.16,-314.82 302,-315"/>
</g>
<!-- Power resistor -->
<g id="node5" class="node">
<title>Power resistor</title>
<polygon fill="#ffffff" stroke="black" points="912.25,-206 786,-206 786,0 912.25,0 912.25,-206"/>
<polygon fill="none" stroke="black" points="786,-181.5 786,-206 912.25,-206 912.25,-181.5 786,-181.5"/>
<text text-anchor="start" x="803.38" y="-188.7" font-family="arial" font-size="14.00">Power resistor</text>
<polygon fill="none" stroke="black" points="786,-157 786,-181.5 872.75,-181.5 872.75,-157 786,-157"/>
<text text-anchor="start" x="790" y="-164.2" font-family="arial" font-size="14.00">10ohm 50W</text>
<polygon fill="none" stroke="black" points="872.75,-157 872.75,-181.5 912.25,-181.5 912.25,-157 872.75,-157"/>
<text text-anchor="start" x="876.75" y="-164.2" font-family="arial" font-size="14.00">2&#45;pin</text>
<polygon fill="none" stroke="black" points="786,-132.5 786,-157 912.25,-157 912.25,-132.5 786,-132.5"/>
<text text-anchor="start" x="845" y="-139.7" font-family="arial" font-size="14.00">1</text>
<polygon fill="none" stroke="black" points="786,-108 786,-132.5 912.25,-132.5 912.25,-108 786,-108"/>
<text text-anchor="start" x="845" y="-115.2" font-family="arial" font-size="14.00">2</text>
<polygon fill="none" stroke="black" points="786,0 786,-108 912.25,-108 912.25,0 786,0"/>
<image xlink:href="powerres.png" width="96px" height="96px" preserveAspectRatio="xMinYMin meet" x="801.125" y="-102"/>
</g>
<!-- Resistor wires -->
<g id="node8" class="node">
<title>Resistor wires</title>
<polygon fill="#ffffff" stroke="black" points="1433.25,-262.5 1125.25,-262.5 1125.25,-121.5 1433.25,-121.5 1433.25,-262.5"/>
<polygon fill="none" stroke="black" points="1125.25,-238 1125.25,-262.5 1433.25,-262.5 1433.25,-238 1125.25,-238"/>
<text text-anchor="start" x="1234.25" y="-245.2" font-family="arial" font-size="14.00">Resistor wires</text>
<polygon fill="none" stroke="black" points="1125.25,-213.5 1125.25,-238 1433.25,-238 1433.25,-213.5 1125.25,-213.5"/>
<text text-anchor="start" x="1271.75" y="-220.7" font-family="arial" font-size="14.00">2x</text>
<text text-anchor="start" x="1176.88" y="-198.2" font-family="arial" font-size="14.00"> </text>
<text text-anchor="start" x="1127" y="-178.2" font-family="arial" font-size="14.00">Power resistor:1</text>
<text text-anchor="start" x="1234.25" y="-178.2" font-family="arial" font-size="14.00"> &#160;&#160;&#160;&#160;1 &#160;&#160;&#160;</text>
<text text-anchor="start" x="1280" y="-178.2" font-family="arial" font-size="14.00">TMC4671 Power:2:PB+</text>
<polygon fill="#000000" stroke="none" points="1125.25,-171.5 1125.25,-173.5 1433.25,-173.5 1433.25,-171.5 1125.25,-171.5"/>
<polygon fill="#ffffff" stroke="none" points="1125.25,-169.5 1125.25,-171.5 1433.25,-171.5 1433.25,-169.5 1125.25,-169.5"/>
<polygon fill="#000000" stroke="none" points="1125.25,-167.5 1125.25,-169.5 1433.25,-169.5 1433.25,-167.5 1125.25,-167.5"/>
<text text-anchor="start" x="1127" y="-152.2" font-family="arial" font-size="14.00">Power resistor:2</text>
<text text-anchor="start" x="1234.25" y="-152.2" font-family="arial" font-size="14.00"> &#160;&#160;&#160;&#160;2 &#160;&#160;&#160;</text>
<text text-anchor="start" x="1281.88" y="-152.2" font-family="arial" font-size="14.00">TMC4671 Power:4:PB&#45;</text>
<polygon fill="#000000" stroke="none" points="1125.25,-145.5 1125.25,-147.5 1433.25,-147.5 1433.25,-145.5 1125.25,-145.5"/>
<polygon fill="#ffffff" stroke="none" points="1125.25,-143.5 1125.25,-145.5 1433.25,-145.5 1433.25,-143.5 1125.25,-143.5"/>
<polygon fill="#000000" stroke="none" points="1125.25,-141.5 1125.25,-143.5 1433.25,-143.5 1433.25,-141.5 1125.25,-141.5"/>
<text text-anchor="start" x="1176.88" y="-126.2" font-family="arial" font-size="14.00"> </text>
</g>
<!-- Power resistor&#45;&#45;Resistor wires -->
<g id="edge10" class="edge">
<title>Power resistor:e&#45;&#45;Resistor wires:w</title>
<path fill="none" stroke="#000000" stroke-width="2" d="M913.12,-143C1009.11,-143.67 1031.26,-168.67 1124.25,-168"/>
<path fill="none" stroke="#ffffff" stroke-width="2" d="M913.12,-145C1007.61,-145 1029.76,-170 1124.25,-170"/>
<path fill="none" stroke="#000000" stroke-width="2" d="M913.12,-147C1006.12,-146.33 1028.26,-171.33 1124.25,-172"/>
</g>
<!-- Power resistor&#45;&#45;Resistor wires -->
<g id="edge12" class="edge">
<title>Power resistor:e&#45;&#45;Resistor wires:w</title>
<path fill="none" stroke="#000000" stroke-width="2" d="M913.12,-118C1009.03,-118.64 1031.28,-142.64 1124.25,-142"/>
<path fill="none" stroke="#ffffff" stroke-width="2" d="M913.12,-120C1007.56,-120 1029.81,-144 1124.25,-144"/>
<path fill="none" stroke="#000000" stroke-width="2" d="M913.12,-122C1006.1,-121.36 1028.35,-145.36 1124.25,-146"/>
</g>
<!-- Motor 3 phase -->
<g id="node6" class="node">
<title>Motor 3 phase</title>
<polygon fill="#ffffff" stroke="black" points="1769.12,-771.5 1649.62,-771.5 1649.62,-542.5 1769.12,-542.5 1769.12,-771.5"/>
<polygon fill="none" stroke="black" points="1649.62,-747 1649.62,-771.5 1769.12,-771.5 1769.12,-747 1649.62,-747"/>
<text text-anchor="start" x="1664" y="-754.2" font-family="arial" font-size="14.00">Motor 3 phase</text>
<polygon fill="none" stroke="black" points="1649.62,-722.5 1649.62,-747 1729.62,-747 1729.62,-722.5 1649.62,-722.5"/>
<text text-anchor="start" x="1653.62" y="-729.7" font-family="arial" font-size="14.00">Mige Servo</text>
<polygon fill="none" stroke="black" points="1729.62,-722.5 1729.62,-747 1769.12,-747 1769.12,-722.5 1729.62,-722.5"/>
<text text-anchor="start" x="1733.62" y="-729.7" font-family="arial" font-size="14.00">4&#45;pin</text>
<polygon fill="none" stroke="black" points="1649.62,-698.5 1649.62,-722.5 1703.88,-722.5 1703.88,-698.5 1649.62,-698.5"/>
<text text-anchor="start" x="1672.62" y="-705.2" font-family="arial" font-size="14.00">1</text>
<polygon fill="none" stroke="black" points="1703.88,-698.5 1703.88,-722.5 1769.12,-722.5 1769.12,-698.5 1703.88,-698.5"/>
<text text-anchor="start" x="1726.75" y="-705.2" font-family="arial" font-size="14.00">PE</text>
<polygon fill="none" stroke="black" points="1649.62,-674.5 1649.62,-698.5 1703.88,-698.5 1703.88,-674.5 1649.62,-674.5"/>
<text text-anchor="start" x="1672.62" y="-681.2" font-family="arial" font-size="14.00">2</text>
<polygon fill="none" stroke="black" points="1703.88,-674.5 1703.88,-698.5 1769.12,-698.5 1769.12,-674.5 1703.88,-674.5"/>
<text text-anchor="start" x="1731.62" y="-681.2" font-family="arial" font-size="14.00">U</text>
<polygon fill="none" stroke="black" points="1649.62,-650.5 1649.62,-674.5 1703.88,-674.5 1703.88,-650.5 1649.62,-650.5"/>
<text text-anchor="start" x="1672.62" y="-657.2" font-family="arial" font-size="14.00">3</text>
<polygon fill="none" stroke="black" points="1703.88,-650.5 1703.88,-674.5 1769.12,-674.5 1769.12,-650.5 1703.88,-650.5"/>
<text text-anchor="start" x="1731.62" y="-657.2" font-family="arial" font-size="14.00">V</text>
<polygon fill="none" stroke="black" points="1649.62,-626.5 1649.62,-650.5 1703.88,-650.5 1703.88,-626.5 1649.62,-626.5"/>
<text text-anchor="start" x="1672.62" y="-633.2" font-family="arial" font-size="14.00">4</text>
<polygon fill="none" stroke="black" points="1703.88,-626.5 1703.88,-650.5 1769.12,-650.5 1769.12,-626.5 1703.88,-626.5"/>
<text text-anchor="start" x="1729.38" y="-633.2" font-family="arial" font-size="14.00">W</text>
<polygon fill="none" stroke="black" points="1649.62,-542.5 1649.62,-626.5 1769.12,-626.5 1769.12,-542.5 1649.62,-542.5"/>
<image xlink:href="130st.png" width="94.5306px" height="72px" preserveAspectRatio="xMinYMin meet" x="1662.11" y="-620.5"/>
</g>
<!-- Motor cable&#45;&#45;Motor 3 phase -->
<g id="edge2" class="edge">
<title>Motor cable:e&#45;&#45;Motor 3 phase:w</title>
<path fill="none" stroke="#000000" stroke-width="2" d="M1456.25,-690C1540.44,-690.2 1561.68,-683.2 1648.38,-683"/>
<path fill="none" stroke="#895956" stroke-width="2" d="M1456.25,-692C1541.07,-692.1 1562.3,-685.1 1648.38,-685"/>
<path fill="none" stroke="#895956" stroke-width="2" d="M1456.25,-694C1541.7,-694 1562.93,-687 1648.38,-687"/>
<path fill="none" stroke="#895956" stroke-width="2" d="M1456.25,-696C1542.32,-695.9 1563.56,-688.9 1648.38,-689"/>
<path fill="none" stroke="#000000" stroke-width="2" d="M1456.25,-698C1542.95,-697.8 1564.18,-690.8 1648.38,-691"/>
</g>
<!-- Motor cable&#45;&#45;Motor 3 phase -->
<g id="edge4" class="edge">
<title>Motor cable:e&#45;&#45;Motor 3 phase:w</title>
<path fill="none" stroke="#000000" stroke-width="2" d="M1456.25,-659C1541.64,-659 1562.99,-659 1648.38,-659"/>
<path fill="none" stroke="#0066ff" stroke-width="2" d="M1456.25,-661C1541.64,-661 1562.99,-661 1648.38,-661"/>
<path fill="none" stroke="#0066ff" stroke-width="2" d="M1456.25,-663C1541.64,-663 1562.99,-663 1648.38,-663"/>
<path fill="none" stroke="#0066ff" stroke-width="2" d="M1456.25,-665C1541.64,-665 1562.99,-665 1648.38,-665"/>
<path fill="none" stroke="#000000" stroke-width="2" d="M1456.25,-667C1541.64,-667 1562.99,-667 1648.38,-667"/>
</g>
<!-- Motor cable&#45;&#45;Motor 3 phase -->
<g id="edge6" class="edge">
<title>Motor cable:e&#45;&#45;Motor 3 phase:w</title>
<path fill="none" stroke="#000000" stroke-width="2" d="M1456.25,-629C1542.58,-629.11 1563.87,-634.11 1648.38,-634"/>
<path fill="none" stroke="#000000" stroke-width="2" d="M1456.25,-631C1542.13,-631.05 1563.41,-636.05 1648.38,-636"/>
<path fill="none" stroke="#000000" stroke-width="2" d="M1456.25,-633C1541.67,-633 1562.96,-638 1648.38,-638"/>
<path fill="none" stroke="#000000" stroke-width="2" d="M1456.25,-635C1541.21,-634.95 1562.5,-639.95 1648.38,-640"/>
<path fill="none" stroke="#000000" stroke-width="2" d="M1456.25,-637C1540.75,-636.89 1562.04,-641.89 1648.38,-642"/>
</g>
<!-- Motor cable&#45;&#45;Motor 3 phase -->
<g id="edge7" class="edge">
<title>Motor cable:e&#45;&#45;Motor 3 phase:w</title>
<path fill="none" stroke="#000000" stroke-width="2" d="M1456.25,-587C1557.88,-587 1546.75,-711 1648.38,-711"/>
</g>
<!-- Motor cable&#45;&#45;Motor 3 phase -->
<g id="edge9" class="edge">
<title>Motor cable:e&#45;&#45;Motor 3 phase:w</title>
<path fill="none" stroke="#000000" stroke-width="2" d="M1456.25,-720C1539.73,-720.6 1560.68,-707.6 1648.38,-707"/>
<path fill="none" stroke="#ffff00" stroke-width="2" d="M1456.25,-722C1540.78,-722.3 1561.74,-709.3 1648.38,-709"/>
<path fill="none" stroke="#00ff00" stroke-width="2" d="M1456.25,-724C1541.83,-724 1562.79,-711 1648.38,-711"/>
<path fill="none" stroke="#ffff00" stroke-width="2" d="M1456.25,-726C1542.89,-725.7 1563.85,-712.7 1648.38,-713"/>
<path fill="none" stroke="#000000" stroke-width="2" d="M1456.25,-728C1543.94,-727.4 1564.9,-714.4 1648.38,-715"/>
</g>
<!-- Resistor wires&#45;&#45;TMC4671 Power -->
<g id="edge11" class="edge">
<title>Resistor wires:e&#45;&#45;TMC4671 Power:w</title>
<path fill="none" stroke="#000000" stroke-width="2" d="M1434.25,-168C1522.08,-170.1 1517.41,-267.1 1601.25,-265"/>
<path fill="none" stroke="#ffffff" stroke-width="2" d="M1434.25,-170C1520.08,-170 1515.42,-267 1601.25,-267"/>
<path fill="none" stroke="#000000" stroke-width="2" d="M1434.25,-172C1518.09,-169.9 1513.42,-266.9 1601.25,-269"/>
</g>
<!-- Resistor wires&#45;&#45;TMC4671 Power -->
<g id="edge13" class="edge">
<title>Resistor wires:e&#45;&#45;TMC4671 Power:w</title>
<path fill="none" stroke="#000000" stroke-width="2" d="M1434.25,-142C1517.43,-143.87 1522.06,-217.87 1601.25,-216"/>
<path fill="none" stroke="#ffffff" stroke-width="2" d="M1434.25,-144C1515.43,-144 1520.07,-218 1601.25,-218"/>
<path fill="none" stroke="#000000" stroke-width="2" d="M1434.25,-146C1513.44,-144.13 1518.07,-218.13 1601.25,-220"/>
</g>
<!-- Power cable&#45;&#45;TMC4671 Power -->
<g id="edge15" class="edge">
<title>Power cable:e&#45;&#45;TMC4671 Power:w</title>
<path fill="none" stroke="#000000" stroke-width="2" d="M1457.25,-361C1525.21,-365 1525.29,-291 1601.25,-287"/>
<path fill="none" stroke="#000000" stroke-width="2" d="M1457.25,-363C1527.21,-365 1527.29,-291 1601.25,-289"/>
<path fill="none" stroke="#000000" stroke-width="2" d="M1457.25,-365C1529.21,-365 1529.29,-291 1601.25,-291"/>
<path fill="none" stroke="#000000" stroke-width="2" d="M1457.25,-367C1531.21,-365 1531.29,-291 1601.25,-293"/>
<path fill="none" stroke="#000000" stroke-width="2" d="M1457.25,-369C1533.21,-365 1533.29,-291 1601.25,-295"/>
</g>
<!-- Power cable&#45;&#45;TMC4671 Power -->
<g id="edge17" class="edge">
<title>Power cable:e&#45;&#45;TMC4671 Power:w</title>
<path fill="none" stroke="#000000" stroke-width="2" d="M1457.25,-331C1529.21,-335.34 1521.32,-243.34 1601.25,-239"/>
<path fill="none" stroke="#ff0000" stroke-width="2" d="M1457.25,-333C1531.2,-335.17 1523.31,-243.17 1601.25,-241"/>
<path fill="none" stroke="#ff0000" stroke-width="2" d="M1457.25,-335C1533.2,-335 1525.3,-243 1601.25,-243"/>
<path fill="none" stroke="#ff0000" stroke-width="2" d="M1457.25,-337C1535.19,-334.83 1527.3,-242.83 1601.25,-245"/>
<path fill="none" stroke="#000000" stroke-width="2" d="M1457.25,-339C1537.18,-334.66 1529.29,-242.66 1601.25,-247"/>
</g>
<!-- Mains cable&#45;&#45;Power supply -->
<g id="edge19" class="edge">
<title>Mains cable:e&#45;&#45;Power supply:w</title>
<path fill="none" stroke="#000000" stroke-width="2" d="M597,-367C683.59,-367.14 705.41,-361.14 794.12,-361"/>
<path fill="none" stroke="#895956" stroke-width="2" d="M597,-369C684.12,-369.07 705.94,-363.07 794.12,-363"/>
<path fill="none" stroke="#895956" stroke-width="2" d="M597,-371C684.65,-371 706.47,-365 794.12,-365"/>
<path fill="none" stroke="#895956" stroke-width="2" d="M597,-373C685.18,-372.93 707,-366.93 794.12,-367"/>
<path fill="none" stroke="#000000" stroke-width="2" d="M597,-375C685.71,-374.86 707.53,-368.86 794.12,-369"/>
</g>
<!-- Mains cable&#45;&#45;Power supply -->
<g id="edge21" class="edge">
<title>Mains cable:e&#45;&#45;Power supply:w</title>
<path fill="none" stroke="#000000" stroke-width="2" d="M597,-337C684.61,-337 706.51,-337 794.12,-337"/>
<path fill="none" stroke="#0066ff" stroke-width="2" d="M597,-339C684.61,-339 706.51,-339 794.12,-339"/>
<path fill="none" stroke="#0066ff" stroke-width="2" d="M597,-341C684.61,-341 706.51,-341 794.12,-341"/>
<path fill="none" stroke="#0066ff" stroke-width="2" d="M597,-343C684.61,-343 706.51,-343 794.12,-343"/>
<path fill="none" stroke="#000000" stroke-width="2" d="M597,-345C684.61,-345 706.51,-345 794.12,-345"/>
</g>
<!-- Mains cable&#45;&#45;Power supply -->
<g id="edge23" class="edge">
<title>Mains cable:e&#45;&#45;Power supply:w</title>
<path fill="none" stroke="#000000" stroke-width="2" d="M597,-307C685.71,-307.14 707.53,-313.14 794.12,-313"/>
<path fill="none" stroke="#ffff00" stroke-width="2" d="M597,-309C685.18,-309.07 707,-315.07 794.12,-315"/>
<path fill="none" stroke="#00ff00" stroke-width="2" d="M597,-311C684.65,-311 706.47,-317 794.12,-317"/>
<path fill="none" stroke="#ffff00" stroke-width="2" d="M597,-313C684.12,-312.93 705.94,-318.93 794.12,-319"/>
<path fill="none" stroke="#000000" stroke-width="2" d="M597,-315C683.59,-314.86 705.41,-320.86 794.12,-321"/>
</g>
</g>
</svg>
